<svg width="292" height="56" viewBox="0 0 292 56" fill="none" xmlns="http://www.w3.org/2000/svg">
<path d="M106.981 44.8329V15.8287H113.912V19.805C114.556 18.3371 115.504 17.2718 116.761 16.6091C118.012 15.9464 119.449 15.6182 121.059 15.6182C121.846 15.6182 122.589 15.6987 123.289 15.8597C123.989 16.0207 124.602 16.2251 125.141 16.4791L124.119 22.9265C123.617 22.4991 123.047 22.2019 122.403 22.0408C121.759 21.8798 120.861 21.7993 119.715 21.7993C118.068 21.7993 116.78 22.1399 115.851 22.8212C114.922 23.5025 114.364 24.4315 114.184 25.6145V44.8391H106.988L106.981 44.8329Z" fill="#EFEEF0"/>
<path d="M142.222 44.8332C139.757 44.8332 139.237 44.4492 138.227 43.7121C136.976 42.8017 136.078 41.8355 135.62 40.2871C135.62 40.3181 135.607 40.3862 135.607 40.3862L135.564 44.8579C135.564 44.8579 129.513 44.8332 128.949 44.8332V7.51112L135.979 5.13281V20.4122C136.753 18.8948 137.663 17.8295 138.704 17.2163C139.744 16.6032 141.2 15.8476 142.891 15.8476H148.545C150.626 15.8476 152.262 16.3493 153.686 16.9748C155.111 17.6003 156.232 18.1392 157.099 19.0868C157.96 20.0406 158.579 21.2297 158.951 22.6542C159.322 24.0787 159.508 25.7634 159.508 27.7019V33.4124C159.508 35.3509 159.322 37.0356 158.951 38.4601C158.579 39.8846 157.966 41.0737 157.099 42.0275C156.232 42.9813 155.098 43.6812 153.686 44.1395C152.274 44.5978 150.534 44.827 148.453 44.827H142.216L142.222 44.8332ZM152.423 27.9187C152.423 26.0173 152.169 24.6238 151.655 23.7443C151.141 22.8648 150.075 22.4251 148.459 22.4251H140.159C138.927 22.4251 137.986 22.6357 137.329 23.0568C136.679 23.478 136.227 24.184 135.979 25.1688V35.2147C136.189 36.1994 136.629 37.0294 137.298 37.6983C137.967 38.3672 138.921 38.7016 140.153 38.7016H148.453C149.19 38.7016 149.815 38.6211 150.329 38.4663C150.837 38.3052 151.246 38.0141 151.543 37.593C151.84 37.1718 152.063 36.6082 152.206 35.9021C152.348 35.1961 152.416 34.298 152.416 33.208V27.9187H152.423Z" fill="#EFEEF0"/>
<path d="M165.696 44.8333L165.746 15.8291H172.565L172.515 20.1955C173.147 18.7524 174.082 17.6995 175.314 17.0492C176.547 16.3989 177.959 16.0706 179.545 16.0706C180.319 16.0706 181.05 16.1512 181.737 16.306C182.425 16.467 183.032 16.6652 183.558 16.913L182.555 23.2551C182.059 22.834 181.496 22.5429 180.864 22.3818C180.232 22.2208 179.346 22.1465 178.219 22.1465C176.597 22.1465 175.327 22.4809 174.41 23.1498C173.494 23.8187 172.949 24.7354 172.769 25.8997V44.8271H165.684L165.696 44.8333Z" fill="#EFEEF0"/>
<path d="M187.584 13.8038V8.09961H194.719V13.8038H187.584ZM187.584 44.8333L187.677 15.8291H194.762L194.669 44.8333H187.584Z" fill="#EFEEF0"/>
<path d="M225.011 40.7768C224.552 41.6935 224.069 42.4243 223.555 42.9693C223.041 43.5144 222.465 43.9417 221.809 44.239C221.158 44.5363 220.409 44.7407 219.56 44.846C218.712 44.9513 217.709 45.007 216.544 45.007H211.627C209.546 45.007 207.811 44.7964 206.418 44.3753C205.024 43.9541 204.554 43.6259 203.625 42.8269C201.791 41.2537 201.296 37.5934 201.073 35.63C200.912 34.2179 200.683 32.3289 200.683 30.4585V27.7085C200.683 25.77 200.868 24.0854 201.24 22.6608C201.612 21.2363 202.219 20.0472 203.061 19.0934C203.909 18.1396 205.024 17 206.418 16.5417C207.811 16.0833 209.546 15.8542 211.627 15.8542H217.758C218.322 15.8542 218.966 15.9161 219.69 16.0152C222.261 16.3559 223.27 17.6998 223.865 18.3316C224.435 18.9324 224.949 19.5951 225.265 20.4745L225.246 15.8418H232.065L232.084 40.1389C232.084 41.8669 231.848 45.1123 231.65 46.704C231.44 48.4072 230.876 50.2591 229.866 51.4235C228.578 52.9223 227.773 53.5169 225.457 54.5202C223.778 55.2449 221.864 55.6289 219.821 55.8209C216.439 56.1367 212.704 55.9385 209.1 55.9447C207.83 55.9447 202.181 55.9447 202.181 55.9447L204.324 50.1105C204.324 50.1105 207.675 50.1352 208.839 50.1352C209.799 50.1352 216.247 50.191 219.368 50.1105C220.694 50.0795 221.821 49.4416 222.36 49.0018C223.574 48.0232 224.144 47.4225 224.503 46.4749C225.073 44.976 224.998 41.2352 224.998 40.1389V40.7892L225.011 40.7768ZM225.011 25.1692C224.726 24.1844 224.28 23.1749 223.661 22.7723C223.041 22.3698 222.174 22.1654 221.041 22.1654H212.103C211.255 22.1654 210.561 22.2521 210.016 22.4317C209.471 22.6113 209.019 23.2183 208.666 23.6394C208.313 24.0606 208.065 24.6366 207.929 25.355C207.787 26.0797 207.718 27.0025 207.718 28.1297V30.0311C207.718 31.2636 207.799 35.3513 207.954 36.0884C208.115 36.8316 208.356 37.4014 208.691 37.804C209.025 38.2065 209.465 38.4729 210.01 38.5967C210.555 38.7206 211.236 38.7825 212.048 38.7825H220.558C221.895 38.7825 222.899 38.6091 223.574 38.2561C224.243 37.9031 224.72 37.1784 224.998 36.0884V25.1692H225.011Z" fill="#EFEEF0"/>
<path d="M262.122 44.8332V26.8039C262.122 25.3236 261.838 23.9115 261.274 23.1931C260.71 22.4684 259.688 22.1092 258.208 22.1092H249.011C247.989 22.1092 247.215 22.3322 246.682 22.7719C246.156 23.2117 245.747 24.215 245.468 25.1688V44.8332H238.438V7.51112L245.468 5.13281V20.4122C246.242 18.8948 247.153 17.4207 248.193 16.8014C249.234 16.1882 250.596 15.8785 252.293 15.8785H258.214C260.295 15.8785 262.036 16.1077 263.448 16.566C264.86 17.0243 265.987 17.7304 266.829 18.678C267.678 19.6318 268.285 21.2297 268.65 22.6604C269.022 24.0849 269.208 25.7696 269.208 27.7081V44.8394H262.122V44.8332Z" fill="#EFEEF0"/>
<path d="M290.296 44.5171C289.943 44.7277 289.386 44.9197 288.63 45.0993C287.875 45.2727 287.032 45.3656 286.122 45.3656C282.53 45.3656 279.953 44.2136 278.405 41.9034C276.856 39.5933 276.076 36.1683 276.076 31.6222L276.119 22.0285H272.893L273.704 15.7854H276.082V9.94497L283.155 7.61621V15.7792H289.082L288.271 22.0223H283.199L283.155 31.616C283.155 34.1554 283.545 36.0506 284.32 37.3017C285.094 38.5528 286.382 39.1783 288.178 39.1783C289.621 39.1783 290.68 38.9306 291.349 38.4351L290.29 44.5171H290.296Z" fill="#EFEEF0"/>
<path d="M0 44.8085C0.179612 43.768 0.346836 42.7337 0.507867 41.6932C0.668898 40.6527 0.836123 39.6184 1.01573 38.5779H21.1013C22.1046 38.5779 22.8478 38.3797 23.3309 37.9895C23.814 37.5931 24.0556 36.7756 24.0556 35.5183C24.0556 34.261 23.814 33.4435 23.3309 33.0471C22.8478 32.6507 22.1046 32.4587 21.1013 32.4587H10.467C7.13492 32.4587 4.6761 31.957 3.08437 30.9537C1.49263 29.9503 0.693672 28.2161 0.693672 25.7449V22.6296C0.693672 21.3042 0.898058 20.1956 1.31302 19.2975C1.72179 18.4056 2.34114 17.7058 3.16488 17.2041C3.98862 16.7024 5.04771 16.3432 6.33595 16.1326C7.6242 15.9158 9.12923 15.8105 10.8448 15.8105H30.6083L29.5864 22.097H11.1669C10.1635 22.097 9.42032 22.2951 8.93723 22.6853C8.45413 23.0817 8.21259 23.8869 8.21259 25.1008C8.21259 26.3147 8.45413 27.0827 8.93723 27.4915C9.42032 27.9065 10.1635 28.1108 11.1669 28.1108H21.8011C25.0961 28.1108 27.5487 28.6187 29.159 29.6406C30.7693 30.6626 31.5745 32.3906 31.5745 34.8246V38.0452C31.5745 39.4078 31.3701 40.5164 30.9551 41.3773C30.5402 42.2382 29.927 42.9257 29.1033 43.446C28.2795 43.9662 27.2205 44.3254 25.9322 44.5174C24.644 44.7156 23.1389 44.8147 21.4233 44.8147H0V44.8085Z" fill="#EFEEF0"/>
<path d="M52.3057 9.25195L66.8959 26.6891L82.3759 28.1126L78.3962 17.0813L52.3057 9.25195Z" fill="url(#paint0_linear_1063_3336)"/>
<path style="mix-blend-mode:multiply" d="M82.5538 28.1126L52.3057 9.25195L66.8959 26.6891L82.5538 28.1126Z" fill="url(#paint1_linear_1063_3336)"/>
<path d="M82.3417 27.9951L76.2267 38.9183L33.4443 51.3772L71.0332 32.7977L74.395 31.0498L82.3417 27.9951Z" fill="url(#paint2_linear_1063_3336)"/>
<path d="M94.7675 22.1814L82.3421 28.0004L78.2832 17.0813L97.5932 0L94.7675 22.1814Z" fill="url(#paint3_linear_1063_3336)"/>
<path d="M82.3479 28.0003L74.5743 30.9936L70.4195 32.0267L46.5293 40.4927L64.4048 28.4688L66.8958 26.6895L82.3479 28.0003Z" fill="url(#paint4_linear_1063_3336)"/>
<path style="mix-blend-mode:multiply" d="M94.7567 22.1925L97.5936 0.0390625L82.376 28.1129L94.7567 22.1925Z" fill="url(#paint5_linear_1063_3336)"/>
<path style="mix-blend-mode:multiply" d="M78.2832 17.0814L97.5039 0.201172L82.3756 28.1131L78.2832 17.0814Z" fill="url(#paint6_linear_1063_3336)"/>
<path d="M76.2109 38.9239L90.5015 55.8782L93.2323 35.6458L82.3427 27.9951L76.2109 38.9239Z" fill="url(#paint7_linear_1063_3336)"/>
<path d="M82.3477 28.0006L93.0754 35.5005L120.958 30.0669L94.7675 22.1816L82.3477 28.0006Z" fill="url(#paint8_linear_1063_3336)"/>
<path d="M93.232 35.6507L120.987 30.0698L94.0194 28.3742L82.3535 28L93.232 35.6507Z" fill="url(#paint9_linear_1063_3336)"/>
<path style="mix-blend-mode:multiply" d="M76.2383 38.9629L82.3755 28.1133L90.5065 55.8894L76.2383 38.9629Z" fill="url(#paint10_linear_1063_3336)"/>
<path style="mix-blend-mode:multiply" d="M93.2432 35.6234L120.808 30.0669L94.1702 28.4307L93.2432 35.6234Z" fill="url(#paint11_linear_1063_3336)"/>
<path style="mix-blend-mode:multiply" d="M93.2426 35.6729L120.808 30.0697L82.1973 27.9346L93.2426 35.6729Z" fill="url(#paint12_linear_1063_3336)"/>
<path d="M51.078 44.5114C50.7188 44.7282 50.1552 44.9202 49.3872 45.0998C48.6192 45.2794 47.7645 45.3661 46.8355 45.3661C43.1813 45.3661 40.5676 44.1956 38.9945 41.8482C37.4213 39.5009 36.6286 36.0201 36.6286 31.3998V21.9919H33.3584L34.2131 15.8231H36.6286V9.37568L43.8254 7.00977V15.8169H49.8393L48.9846 21.9857H43.8254V31.3936C43.8192 33.9701 44.2094 35.8963 45.0022 37.1659C45.7888 38.4356 47.0956 39.0735 48.9227 39.0735C50.3905 39.0735 51.462 38.8258 52.1433 38.3241L51.0718 44.499L51.078 44.5114Z" fill="#EFEEF0"/>
<defs>
<linearGradient id="paint0_linear_1063_3336" x1="51.4932" y1="15.6618" x2="83.9531" y2="19.9756" gradientUnits="userSpaceOnUse">
<stop stop-color="#FCEE23"/>
<stop offset="0.15" stop-color="#FDEC18"/>
<stop offset="0.37" stop-color="#FDEB11"/>
<stop offset="1" stop-color="#FEEB10"/>
</linearGradient>
<linearGradient id="paint1_linear_1063_3336" x1="77.7647" y1="16.8029" x2="35.4295" y2="20.224" gradientUnits="userSpaceOnUse">
<stop offset="0.02" stop-color="#E88924"/>
<stop offset="0.05" stop-color="#E99031"/>
<stop offset="0.14" stop-color="#EEAA61"/>
<stop offset="0.24" stop-color="#F2C08B"/>
<stop offset="0.34" stop-color="#F6D4AF"/>
<stop offset="0.44" stop-color="#F9E3CC"/>
<stop offset="0.55" stop-color="#FCEFE2"/>
<stop offset="0.67" stop-color="#FDF8F2"/>
<stop offset="0.81" stop-color="#FEFDFC"/>
<stop offset="1" stop-color="white"/>
</linearGradient>
<linearGradient id="paint2_linear_1063_3336" x1="39.6696" y1="53.4275" x2="78.2749" y2="32.3371" gradientUnits="userSpaceOnUse">
<stop stop-color="#EF4725"/>
<stop offset="1" stop-color="#F47421"/>
</linearGradient>
<linearGradient id="paint3_linear_1063_3336" x1="78.3485" y1="13.4679" x2="96.9538" y2="14.3062" gradientUnits="userSpaceOnUse">
<stop stop-color="#97C93D"/>
<stop offset="1" stop-color="#D4DE25"/>
</linearGradient>
<linearGradient id="paint4_linear_1063_3336" x1="71.5873" y1="24.9471" x2="54.2959" y2="47.4284" gradientUnits="userSpaceOnUse">
<stop offset="0.14" stop-color="#F15D22"/>
<stop offset="0.28" stop-color="#F26921"/>
<stop offset="0.47" stop-color="#F27021"/>
<stop offset="1" stop-color="#F37221"/>
</linearGradient>
<linearGradient id="paint5_linear_1063_3336" x1="86.3892" y1="1.27659" x2="107.066" y2="32.8141" gradientUnits="userSpaceOnUse">
<stop stop-color="white"/>
<stop offset="0.08" stop-color="#F0F7E5"/>
<stop offset="0.25" stop-color="#D2E8B3"/>
<stop offset="0.41" stop-color="#BADC8A"/>
<stop offset="0.57" stop-color="#A7D269"/>
<stop offset="0.73" stop-color="#99CB52"/>
<stop offset="0.87" stop-color="#91C744"/>
<stop offset="1" stop-color="#8FC640"/>
</linearGradient>
<linearGradient id="paint6_linear_1063_3336" x1="74.9511" y1="25.3522" x2="117.243" y2="-13.2871" gradientUnits="userSpaceOnUse">
<stop offset="0.02" stop-color="#8FC640"/>
<stop offset="0.06" stop-color="#A3D063"/>
<stop offset="0.11" stop-color="#B9DB87"/>
<stop offset="0.17" stop-color="#CCE5A8"/>
<stop offset="0.23" stop-color="#DCEDC3"/>
<stop offset="0.3" stop-color="#E9F3D9"/>
<stop offset="0.38" stop-color="#F2F8EA"/>
<stop offset="0.48" stop-color="#F9FCF6"/>
<stop offset="0.61" stop-color="#FDFEFD"/>
<stop offset="1" stop-color="white"/>
</linearGradient>
<linearGradient id="paint7_linear_1063_3336" x1="93.7374" y1="41.2848" x2="77.4556" y2="42.7257" gradientUnits="userSpaceOnUse">
<stop stop-color="#ED2986"/>
<stop offset="0.12" stop-color="#DA2B89"/>
<stop offset="0.33" stop-color="#BF2F8E"/>
<stop offset="0.54" stop-color="#AC3291"/>
<stop offset="0.76" stop-color="#A13493"/>
<stop offset="1" stop-color="#9E3594"/>
</linearGradient>
<linearGradient id="paint8_linear_1063_3336" x1="115.603" y1="26.4444" x2="83.8502" y2="29.9441" gradientUnits="userSpaceOnUse">
<stop stop-color="#70A1D6"/>
<stop offset="1" stop-color="#4878BC"/>
</linearGradient>
<linearGradient id="paint9_linear_1063_3336" x1="111.625" y1="26.2869" x2="84.6205" y2="33.6956" gradientUnits="userSpaceOnUse">
<stop stop-color="#4270B7"/>
<stop offset="1" stop-color="#4878BC"/>
</linearGradient>
<linearGradient id="paint10_linear_1063_3336" x1="96.2796" y1="47.5635" x2="60.8169" y2="43.6088" gradientUnits="userSpaceOnUse">
<stop stop-color="white"/>
<stop offset="1"/>
</linearGradient>
<linearGradient id="paint11_linear_1063_3336" x1="124.435" y1="35.1623" x2="124.546" y2="35.1771" gradientUnits="userSpaceOnUse">
<stop offset="0.01" stop-color="white"/>
<stop offset="0.13" stop-color="#FAFDFE"/>
<stop offset="0.26" stop-color="#EDF9FD"/>
<stop offset="0.39" stop-color="#D6F1FA"/>
<stop offset="0.53" stop-color="#B7E7F7"/>
<stop offset="0.67" stop-color="#8FDAF3"/>
<stop offset="0.82" stop-color="#5EC9EE"/>
<stop offset="0.96" stop-color="#25B6E8"/>
<stop offset="1" stop-color="#14B1E7"/>
</linearGradient>
<linearGradient id="paint12_linear_1063_3336" x1="114.255" y1="18.7493" x2="90.2151" y2="55.4135" gradientUnits="userSpaceOnUse">
<stop/>
<stop offset="0.08" stop-color="#313131"/>
<stop offset="0.16" stop-color="#616161"/>
<stop offset="0.25" stop-color="#8B8B8B"/>
<stop offset="0.34" stop-color="#AFAFAF"/>
<stop offset="0.44" stop-color="#CCCCCC"/>
<stop offset="0.54" stop-color="#E2E2E2"/>
<stop offset="0.65" stop-color="#F2F2F2"/>
<stop offset="0.78" stop-color="#FCFCFC"/>
<stop offset="0.95" stop-color="white"/>
<stop offset="1" stop-color="white"/>
</linearGradient>
</defs>
</svg>
